<?xml version="1.0" encoding="utf-8"?>
<svg version="1.1" x="0px" y="0px" width="240px" height="24px" viewBox="0 0 240 24" enable-background="new 0 0 240 24" preserveAspectRatio="none" xmlns="http://www.w3.org/2000/svg">
  <path fill="#ffffff" fill-opacity="0.33" d="M 240 0 L 240 24 C 188.203 24 170.117 10.82 145.293 8.41 C 120.602 6.01 101.421 9.58 81.528 9.49 C 62.358 9.39 50.332 5.84 30.219 2.91 C 15.552 0.79 4.321 1.529 0 1.99 L 0 0 L 240 0 Z" transform="matrix(-1, 0, 0, -1, 240, 24)"/>
  <path fill="#ffffff" fill-opacity="0.33" d="M 240 2.21 L 240 24 C 188.203 24 170.117 12.04 145.293 9.84 C 120.602 7.691 101.421 10.92 81.528 10.861 C 62.358 10.792 50.332 7.55 30.219 4.89 C 15.552 2.98 4.321 3.63 0 4.021 L 0 2.21 L 239.766 2.21 L 240 2.21 Z" transform="matrix(-1, 0, 0, -1, 240, 26.210001)"/>
  <path fill="#ffffff" d="M 240 3.72 L 240 24 C 188.203 24 170.117 12.36 145.293 9.979 C 120.602 7.62 101.421 13.229 81.528 13.149 C 62.358 13.04 50.332 9.549 30.219 6.62 C 15.552 4.511 4.321 5.25 0 5.691 L 0 3.72 L 240 3.72 Z" transform="matrix(-1, 0, 0, -1, 240, 27.720001)"/>
</svg>